<svg width="90" height="90" viewBox="0 0 90 90" fill="none" xmlns="http://www.w3.org/2000/svg">
<g clip-path="url(#clip0)">
<rect width="90" height="90" fill="white"/>
<path d="M79.4997 83.2512H10.5C5.52942 83.2512 1.5 79.2218 1.5 74.2512V69.7512C1.5 68.9228 2.17157 68.2512 2.99999 68.2512H86.9997C87.8281 68.2512 88.4997 68.9228 88.4997 69.7512V74.2512C88.4997 79.2218 84.4703 83.2512 79.4997 83.2512Z" fill="#EBF2F6"/>
<path d="M86.9985 68.2512H82.4985C83.327 68.2512 83.9985 68.9228 83.9985 69.7512V74.2512C83.9985 79.2218 79.9691 83.2512 74.9985 83.2512H79.4985C84.4691 83.2512 88.4985 79.2218 88.4985 74.2512V69.7512C88.4985 68.9228 87.827 68.2512 86.9985 68.2512Z" fill="#A8D3E6"/>
<path d="M30.0005 68.2512H60.0005V71.2512C60.0005 73.7365 57.9858 75.7512 55.5005 75.7512H34.5005C32.0152 75.7512 30.0005 73.7365 30.0005 71.2512V68.2512Z" fill="#EBF2F6"/>
<path d="M79.4989 6.75C82.8125 6.75 85.4988 9.43626 85.4988 12.7499V68.2493H4.5V12.7499C4.5 9.43626 7.18625 6.75 10.4999 6.75H79.4989Z" fill="#EBF2F6"/>
<path d="M79.4985 6.75H74.9985C78.3122 6.75 80.9985 9.43626 80.9985 12.7499V68.2493H85.4985V12.7499C85.4985 9.43626 82.8122 6.75 79.4985 6.75Z" fill="#A8D3E6"/>
<path d="M6.00006 74.2494V69.7494C6.00006 68.921 6.67164 68.2494 7.50008 68.2494H9.0001V12.7499C9.0001 9.43627 11.6864 6.75 15.0002 6.75H10.5001C7.18637 6.75 4.50004 9.43627 4.50004 12.7499V68.2494H3.00002C2.17158 68.2494 1.5 68.921 1.5 69.7494V74.2494C1.5 79.2199 5.52949 83.2493 10.5001 83.2493H15.0002C10.0296 83.2493 6.00006 79.2199 6.00006 74.2494Z" fill="white"/>
<path d="M3 56.2493H6V68.2493H3V56.2493Z" fill="white"/>
<path d="M4.5 63.7493C5.32843 63.7493 6 63.0777 6 62.2493C6 61.4208 5.32843 60.7493 4.5 60.7493C3.67157 60.7493 3 61.4208 3 62.2493C3 63.0777 3.67157 63.7493 4.5 63.7493Z" fill="#0073AA"/>
<path d="M86.9985 66.7509V12.7501C86.9936 8.60997 83.6387 5.25496 79.4987 5.25H10.4998C6.35981 5.25496 3.00491 8.60997 2.99995 12.7501V56.2508C2.99995 57.0792 3.67151 57.7508 4.49992 57.7508C5.32834 57.7508 5.9999 57.0792 5.9999 56.2508V12.7501C5.9999 10.2648 8.01458 8.25005 10.4998 8.25005H79.4987C81.9839 8.25005 83.9986 10.2648 83.9986 12.7501V66.7509H2.99995C1.34312 66.7509 0 68.0941 0 69.751V74.2511C0.00743741 80.0471 4.70401 84.7438 10.4998 84.7512H79.4987C85.2945 84.7438 89.991 80.0471 89.9985 74.2511V69.751C89.9985 68.0941 88.6554 66.7509 86.9985 66.7509ZM58.499 69.751V71.251C58.499 72.9079 57.1559 74.2511 55.4991 74.2511H34.4994C32.8426 74.2511 31.4995 72.9079 31.4995 71.251V69.751H58.499ZM86.9985 74.2511C86.9936 78.3912 83.6387 81.7462 79.4987 81.7512H10.4998C6.35981 81.7462 3.00491 78.3912 2.99995 74.2511V69.751H28.4995V71.251C28.4995 74.5648 31.1858 77.2511 34.4994 77.2511H55.4991C58.8127 77.2511 61.499 74.5648 61.499 71.251V69.751H86.9985V74.2511Z" fill="#0073AA"/>
<path d="M22.5005 72.7512H18.0005C17.1721 72.7512 16.5005 73.4228 16.5005 74.2512C16.5005 75.0797 17.1721 75.7512 18.0005 75.7512H22.5005C23.3289 75.7512 24.0005 75.0797 24.0005 74.2512C24.0005 73.4228 23.3289 72.7512 22.5005 72.7512Z" fill="#0073AA"/>
<path d="M8.99988 75.7512C9.82831 75.7512 10.4999 75.0797 10.4999 74.2512C10.4999 73.4228 9.82831 72.7512 8.99988 72.7512C8.17145 72.7512 7.49988 73.4228 7.49988 74.2512C7.49988 75.0797 8.17145 75.7512 8.99988 75.7512Z" fill="#0073AA"/>
<path d="M13.5 75.7512C14.3284 75.7512 15 75.0797 15 74.2512C15 73.4228 14.3284 72.7512 13.5 72.7512C12.6716 72.7512 12 73.4228 12 74.2512C12 75.0797 12.6716 75.7512 13.5 75.7512Z" fill="#0073AA"/>
<path d="M76.4675 38.8764L70.3794 28.5998C70.159 28.228 69.759 28 69.3267 28H15.2234C14.5477 28 14 28.5477 14 29.2234V33.9947C14 34.6704 14.5477 35.2181 15.2234 35.2181C15.8991 35.2181 16.4468 34.6704 16.4468 33.9947V30.4468H30.2818L35.6452 39.5L30.2818 48.5532H16.4468V45.0053C16.4468 44.3296 15.8991 43.7819 15.2234 43.7819C14.5477 43.7819 14 44.3296 14 45.0053V49.7766C14 50.4523 14.5477 51 15.2234 51H69.3267C69.7588 51 70.159 50.772 70.3794 50.4002L76.4675 40.1236C76.6953 39.7391 76.6953 39.2609 76.4675 38.8764ZM38.1197 40.1236C38.3475 39.7391 38.3475 39.2609 38.1197 38.8764L33.1257 30.4468H49.0931L54.4566 39.5L49.0931 48.5532H33.1257L38.1197 40.1236ZM68.6295 48.5532H51.937L56.9311 40.1236C57.1589 39.7391 57.1589 39.2609 56.9311 38.8764L51.937 30.4468H68.6295L73.9929 39.5L68.6295 48.5532Z" fill="#0073AA"/>
<path d="M49.2531 38.4935C49.7309 38.0158 49.7309 37.2411 49.2531 36.7634C48.7755 36.2856 48.0011 36.2856 47.5229 36.7634L44.473 39.8132L43.28 38.6201C42.8022 38.1424 42.0276 38.1424 41.5497 38.6201C41.072 39.0979 41.072 39.8725 41.5497 40.3504L43.6078 42.4085C43.8468 42.6474 44.1598 42.7669 44.4729 42.7669C44.786 42.7669 45.0992 42.6473 45.338 42.4085L49.2531 38.4935Z" fill="#0073AA"/>
<path d="M66.7011 36.7632L63.6513 39.8131L62.4582 38.62C61.9803 38.1423 61.2059 38.1423 60.7279 38.62C60.2502 39.0977 60.2502 39.8724 60.7279 40.3503L62.7861 42.4084C63.025 42.6473 63.3381 42.7667 63.6511 42.7667C63.9642 42.7667 64.2773 42.6473 64.5162 42.4084L68.4311 38.4935C68.9088 38.0158 68.9088 37.2411 68.4311 36.7632C67.9535 36.2855 67.1791 36.2855 66.7011 36.7632V36.7632Z" fill="#0073AA"/>
<path d="M24.6234 42.7666C24.9365 42.7666 25.2497 42.6471 25.4885 42.4083L29.4034 38.4934C29.8811 38.0156 29.8811 37.241 29.4034 36.7631C28.9257 36.2854 28.151 36.2854 27.6731 36.7631L24.6233 39.8129L23.4301 38.6199C22.9524 38.1421 22.1777 38.1421 21.7 38.6199C21.2222 39.0976 21.2222 39.8723 21.7 40.35L23.7582 42.4082C23.9973 42.6472 24.3104 42.7666 24.6234 42.7666Z" fill="#0073AA"/>
<path d="M15.2234 40.7239C15.8991 40.7239 16.4468 40.1761 16.4468 39.5005C16.4468 38.8248 15.8991 38.2771 15.2234 38.2771C14.5477 38.2771 14 38.8248 14 39.5005C14 40.1761 14.5477 40.7239 15.2234 40.7239Z" fill="#0073AA"/>
</g>
<defs>
<clipPath id="clip0">
<rect width="90" height="90" fill="white"/>
</clipPath>
</defs>
</svg>