<svg xmlns="http://www.w3.org/2000/svg" width="15" height="14" viewBox="0 0 15 14">
    <g fill="none" fill-rule="evenodd">
        <g fill="#0073aa" fill-rule="nonzero">
            <path d="M247.171 23c-1.192 0-2.171.965-2.171 2.139v1.167c0 .322.265.583.592.583h13.816c.327 0 .592-.261.592-.583v-1.167c0-1.174-.979-2.139-2.171-2.139H247.17zm0 1.167h10.658c.552 0 .987.428.987.972v.583h-12.632v-.583c0-.544.435-.972.987-.972zm-1.579 3.889c-.327 0-.592.26-.592.583v6.222c0 1.174.979 2.139 2.171 2.139h5.921c.327 0 .592-.261.592-.583v-7.778c0-.322-.265-.583-.592-.583h-7.5zm9.869 0c-.327 0-.593.26-.593.583v2.722c0 .322.266.583.593.583h3.947c.327 0 .592-.26.592-.583V28.64c0-.322-.265-.583-.592-.583h-3.947zm-9.277 1.166h6.316v6.611h-5.329c-.552 0-.987-.428-.987-.972v-5.639zm9.869 0h2.763v1.556h-2.763v-1.556zm-.592 3.89c-.327 0-.593.26-.593.582v2.723c0 .322.266.583.593.583h2.368c1.192 0 2.171-.965 2.171-2.139v-1.167c0-.322-.265-.583-.592-.583h-3.947zm.592 1.166h2.763v.583c0 .544-.435.972-.987.972h-1.776v-1.555z" transform="translate(-245 -23)"/>
        </g>
    </g>
</svg>
